HIERARCHY
ROOT Hips
{
  OFFSET 263.056 91.6644 -274.608
  CHANNELS 6 Xposition Yposition Zposition Zrotation Xrotation Yrotation
  JOINT LeftUpLeg
  {
    OFFSET 8.64259 1.95398 -2.38835
    CHANNELS 3 Zrotation Xrotation Yrotation
    JOINT LeftLeg
    {
      OFFSET 43.7702 0 0
      CHANNELS 3 Zrotation Xrotation Yrotation
      JOINT LeftFoot
      {
        OFFSET 40.6238 0 0
        CHANNELS 3 Zrotation Xrotation Yrotation
        JOINT LeftToeBase
        {
          OFFSET 12.7242 0 0
          CHANNELS 3 Zrotation Xrotation Yrotation
          End Site
          {
            OFFSET 0 0 0
          }
        }
      }
    }
  }
  JOINT RightUpLeg
  {
    OFFSET -8.2249 1.95398 -2.59336
    CHANNELS 3 Zrotation Xrotation Yrotation
    JOINT RightLeg
    {
      OFFSET 43.5653 0 0
      CHANNELS 3 Zrotation Xrotation Yrotation
      JOINT RightFoot
      {
        OFFSET 40.6238 0 0
        CHANNELS 3 Zrotation Xrotation Yrotation
        JOINT RightToeBase
        {
          OFFSET 12.7242 0 0
          CHANNELS 3 Zrotation Xrotation Yrotation
          End Site
          {
            OFFSET 0 0 0
          }
        }
      }
    }
  }
  JOINT Spine
  {
    OFFSET 0.165834 0.87714 6.61349
    CHANNELS 3 Zrotation Xrotation Yrotation
    JOINT Spine1
    {
      OFFSET 7.38963 1.71661e-005 0
      CHANNELS 3 Zrotation Xrotation Yrotation
      JOINT Spine2
      {
        OFFSET 11.9445 1.14441e-005 0
        CHANNELS 3 Zrotation Xrotation Yrotation
        JOINT Spine3
        {
          OFFSET 14.7254 4.19617e-005 0
          CHANNELS 3 Zrotation Xrotation Yrotation
          JOINT Spine4
          {
            OFFSET 10.9679 0 0
            CHANNELS 3 Zrotation Xrotation Yrotation
            JOINT RightShoulder
            {
              OFFSET 2.46616 -1.6653 3.69651
              CHANNELS 3 Zrotation Xrotation Yrotation
              JOINT RightArm
              {
                OFFSET 13.0012 0 0
                CHANNELS 3 Zrotation Xrotation Yrotation
                JOINT RightForeArm
                {
                  OFFSET 28.7848 1.52588e-005 0
                  CHANNELS 3 Zrotation Xrotation Yrotation
                  JOINT RightHand
                  {
                    OFFSET 26.5688 1.52588e-005 0
                    CHANNELS 3 Zrotation Xrotation Yrotation
                    End Site
                    {
                      OFFSET 0 0 0
                    }
                  }
                }
              }
            }
            JOINT LeftShoulder
            {
              OFFSET 2.38034 -1.29275 -3.7523
              CHANNELS 3 Zrotation Xrotation Yrotation
              JOINT LeftArm
              {
                OFFSET 16.3182 6.10352e-005 0
                CHANNELS 3 Zrotation Xrotation Yrotation
                JOINT LeftForeArm
                {
                  OFFSET 27.0901 0 0
                  CHANNELS 3 Zrotation Xrotation Yrotation
                  JOINT LeftHand
                  {
                    OFFSET 24.5451 1.52588e-005 0
                    CHANNELS 3 Zrotation Xrotation Yrotation
                    End Site
                    {
                      OFFSET 0 0 0
                    }
                  }
                }
              }
            }
            JOINT Neck
            {
              OFFSET 5.0226 -0.0266342 0
              CHANNELS 3 Zrotation Xrotation Yrotation
              JOINT Head
              {
                OFFSET 6.69364 2.86102e-005 0
                CHANNELS 3 Zrotation Xrotation Yrotation
                End Site
                {
                  OFFSET 0 0 0
                }
              }
            }
          }
        }
      }
    }
  }
}
MOTION
Frames:	13
Frame Time:	0.0416667
40.5511 95.2928 18.945 93.0561 -37.4005 90.999 -173.09 13.1936 91.4707 -24.3989 8.29504 0.124618 61.0012 4.38434 9.46681 40.8339 11.9853 -12.9536 179.42 16.9181 89.849 -36.5057 7.98933 -3.50286 69.8048 -4.22811 -2.20233 42.2062 1.42109 10.74 -0.196083 7.93239 -90.0204 11.0092 -0.399695 -0.00226388 -0.661725 -0.399414 0.0153216 -23.1973 -0.380543 -0.122286 -3.1847 -0.380535 -0.122291 82.9393 -49.438 -111.72 28.3541 -7.12633 1.89931 -6.36738 -11.8024 -40.1833 -12.2766 -1.0689 5.11518 -103.291 -42.7363 56.0683 -26.6845 3.31429 6.53062 4.83771 2.65473 -37.384 10.307 0.520722 1.12756 7.30581 -5.2608 5.37862 2.43088 -6.58838 -7.13886 
41.2333 95.3286 18.794 93.1183 -36.9208 91.1348 -173.275 12.9159 91.1257 -24.5722 7.79081 0.334789 61.544 4.72222 9.56569 41.2534 12.2471 -13.9842 179.75 14.7992 89.935 -32.7596 1.37249 -3.60961 71.0498 -4.78092 -2.46945 39.062 0.612477 2.23759 -0.150066 7.86831 -89.7883 11.137 -0.200379 0.440918 -0.53397 -0.180749 0.449299 -23.0688 -0.323601 0.360315 -3.05612 -0.323628 0.360305 81.7919 -54.2903 -111.7 25.4303 -7.67957 2.45952 -5.74174 -14.8167 -34.107 -8.27982 -0.681681 3.94402 -101.732 -41.5315 57.9065 -26.4742 2.63471 5.78355 4.61659 1.88131 -39.1069 16.4982 1.36353 4.44452 6.91488 -5.34897 1.38536 2.8728 -5.73571 -4.22153 
41.9607 95.5621 19.0958 92.8902 -36.2891 90.833 -173.473 11.8308 90.7727 -23.0497 8.38804 0.45983 61.4398 4.93737 9.6993 40.3781 11.5291 -13.5794 179.96 12.887 90.2346 -28.4474 3.79836 -3.86907 68.7625 -3.52003 -1.88239 32.009 -0.0220663 7.16429 -0.0839164 7.71674 -89.7208 11.4401 -0.0365236 0.559657 -0.230924 -0.0118506 0.56072 -22.7652 -0.203015 0.522812 -2.75257 -0.203032 0.522803 80.9841 -53.8722 -113.002 26.2391 -8.13556 6.19415 -8.82499 -20.7072 -33.7118 -2.30306 -0.381282 5.17448 -101.758 -42.0976 58.1263 -26.1733 0.786213 6.53858 3.22346 -1.68428 -41.5526 17.0362 1.29272 3.69588 6.55587 -6.02304 3.07901 2.52577 -6.81006 -6.17319 
42.6121 96.1728 19.4043 93.0318 -35.5705 91.2298 -173.522 9.79524 91.0353 -20.0016 9.02081 0.73359 60.8454 4.12004 8.86675 39.8 11.0448 -13.3565 179.706 9.82986 90.2426 -24.0031 4.38287 -3.56888 68.1456 -3.40052 -1.831 31.7215 -0.153089 8.91944 -0.0761298 7.63156 -89.7469 11.6106 -0.0329867 0.507863 -0.0604181 -0.0105963 0.508814 -22.5949 -0.184086 0.474476 -2.58222 -0.184103 0.47446 81.5091 -53.1179 -112.517 27.5895 -9.04492 8.90245 -9.10115 -21.0477 -34.0826 -0.608584 -0.252761 5.53173 -101.534 -42.9086 58.8381 -26.8126 -0.13361 7.57592 4.28402 -1.01191 -43.5192 16.6902 1.39171 4.44376 6.84034 -6.39522 3.72301 1.52242 -7.25411 -6.10151 
43.1661 96.7524 19.6614 92.3075 -35.6323 90.8414 -173.161 7.67417 91.1706 -15.5509 8.9526 0.582706 60.9329 3.37931 7.3648 37.1334 8.75413 -12.3567 178.694 7.908 89.4548 -19.8706 2.56542 -2.6671 66.789 -2.57526 -1.4 30.4501 -0.30508 8.44524 -0.0555716 7.48207 -89.7745 11.9095 -0.00418833 0.450236 0.238506 0.0156096 0.449981 -22.2961 -0.139315 0.428166 -2.28342 -0.139321 0.428161 82.4341 -52.5695 -111.371 28.4685 -8.3986 11.1672 -7.86458 -17.4947 -36.2996 -1.50584 -0.291078 1.99989 -100.787 -42.9708 60.0171 -29.0622 0.138094 8.4308 5.17158 0.260976 -43.1148 17.3371 1.50568 4.79964 7.53282 -6.48694 4.21325 -0.00757847 -7.37458 -5.84478 
43.3303 97.0653 19.9461 91.4931 -35.7789 89.9439 -172.65 6.17824 91.2014 -11.5875 10.7862 -0.115461 60.1121 2.33969 8.14814 35.5654 7.37588 -11.0328 178.285 6.77364 88.9332 -16.7551 2.15664 -2.42273 66.5544 -2.34072 -1.26449 28.5771 -0.587045 8.86427 -0.0864486 7.38508 -89.7711 12.1036 -0.0636155 0.463658 0.432574 -0.0431646 0.466005 -22.102 -0.200015 0.423104 -2.08937 -0.200021 0.423102 82.6955 -52.0237 -111.177 29.1395 -7.75302 12.3063 -8.57643 -15.7919 -38.7501 -4.18378 -0.44053 3.69785 -100.997 -43.13 59.7632 -30.7632 2.16102 8.90163 3.74675 -0.221472 -39.8416 15.3537 1.16213 3.65233 8.47535 -6.14109 5.07478 -0.547662 -7.22096 -5.91952 
43.5594 97.1807 20.1391 90.7158 -35.8756 89.31 -172.442 5.38995 91.1885 -9.38411 9.79115 -0.203028 59.7666 0.731091 6.0275 36.0035 7.77101 -11.3001 177.745 5.92366 88.4074 -14.3452 0.741901 -2.01249 66.4168 -2.29889 -1.24932 28.8459 -0.567036 9.20852 -0.145906 7.30826 -89.8011 12.2577 -0.195408 0.419255 0.586685 -0.17677 0.427441 -21.9482 -0.312382 0.341145 -1.93557 -0.312382 0.341143 82.868 -52.1387 -110.886 28.9527 -7.35179 11.4545 -8.94063 -14.9202 -39.3266 -6.76606 -0.571051 3.33051 -102.168 -43.5639 58.1627 -31.5541 4.26113 9.04023 4.15837 2.92386 -35.2364 12.1032 0.849629 3.02583 8.34457 -5.47607 5.75617 -0.342509 -6.69016 -4.77552 
43.6873 97.2049 20.2292 90.0213 -35.6531 88.4836 -172.596 5.37652 90.7632 -8.45912 9.84263 -0.284649 59.4101 0.66084 6.14328 36.0125 7.76549 -11.8524 177.253 5.93153 87.7393 -13.4608 0.553731 -1.70596 66.2534 -2.00252 -1.07648 28.6561 -0.665795 10.2222 -0.234009 7.22254 -89.8106 12.4294 -0.374822 0.421164 0.758402 -0.355917 0.437243 -21.7769 -0.48408 0.28904 -1.76423 -0.484061 0.289042 83.3929 -51.7867 -110.234 29.2629 -7.09684 9.93546 -8.05548 -13.2878 -39.5888 -7.27803 -0.557415 2.54439 -103.284 -43.9869 56.6643 -32.2654 6.25705 8.60654 2.95883 4.54175 -29.4952 8.45743 0.565885 2.53932 8.39437 -4.85117 6.34356 -0.775414 -6.17633 -4.15393 
43.5732 97.1404 20.2104 89.8651 -35.7129 88.3108 -172.683 5.65172 90.6602 -8.65824 9.60952 -0.287253 59.3045 0.700026 6.24581 36.2764 8.00152 -11.9192 177.315 6.32541 87.6967 -13.8419 0.589237 -1.73174 66.3222 -1.84778 -0.983864 28.2504 -0.726051 10.2171 -0.226661 7.18133 -89.8199 12.5118 -0.36454 0.401776 0.840835 -0.346529 0.417434 -21.6945 -0.468469 0.273636 -1.68182 -0.468446 0.273639 83.3958 -51.8584 -110.207 29.4254 -7.07809 9.25378 -8.50146 -13.511 -40.701 -6.6235 -0.567998 3.51159 -103.725 -43.931 55.974 -33.3209 5.78258 8.52863 0.958193 0.487978 -25.0653 7.70411 0.48062 2.10165 9.11439 -4.21728 5.88346 -1.88684 -5.441 -3.07574 
43.3128 97.1741 20.212 90.2209 -36.299 88.4792 -172.714 5.28763 90.6981 -8.32788 8.94268 -0.149031 59.2234 0.601287 5.98801 35.7863 7.57567 -11.1532 177.289 6.24945 87.7222 -13.8581 0.364399 -1.68306 66.3173 -1.76487 -0.934772 28.5075 -0.729828 10.8716 -0.13076 7.20194 -89.8088 12.4701 -0.168872 0.401246 0.799126 -0.151054 0.408287 -21.7357 -0.28167 0.331941 -1.72308 -0.281663 0.33194 83.0818 -51.9167 -110.648 29.6496 -7.27541 8.67467 -8.45816 -13.0068 -41.639 -5.59409 -0.519572 3.9579 -103.344 -43.679 56.4308 -33.7937 4.78082 9.14456 2.23685 2.11155 -26.3863 8.21536 0.545875 2.49699 10.0391 -3.4035 4.61185 -2.65851 -4.37624 -1.92912 
43.1837 97.1748 20.2503 90.3124 -36.8111 88.517 -172.654 5.26845 90.7859 -8.37262 9.21412 -0.239026 59.2132 0.863161 6.87014 35.3217 7.15036 -11.2164 177.3 6.43736 87.7575 -14.1455 0.010866 -1.66161 66.2446 -1.74087 -0.920729 28.3695 -0.747509 10.8405 -0.0436374 7.18388 -89.8131 12.506 0.00244843 0.37301 0.834993 0.0188465 0.372537 -21.6998 -0.109787 0.356496 -1.68713 -0.109778 0.356499 83.4978 -51.5178 -110.17 30.0091 -8.42975 7.90082 -8.5799 -12.8263 -42.2025 -4.82601 -0.426783 2.57073 -103.071 -43.6348 56.8232 -32.9179 5.52883 9.49116 3.0842 4.16391 -29.2514 9.70339 0.653783 2.64178 9.51165 -2.44745 3.82079 -2.67402 -3.24591 -1.47384 
43.1369 97.1424 20.2765 90.6222 -36.4879 88.7213 -172.707 5.32473 90.8018 -8.97724 8.75495 -0.0667311 59.557 0.685899 6.00925 35.5239 7.33316 -11.3377 177.335 6.32292 87.8479 -14.5046 0.395508 -1.71657 66.4231 -1.81683 -0.959835 29.5073 -0.575962 10.9299 -0.0694847 7.17831 -89.8076 12.5172 -0.0463268 0.389623 0.846178 -0.029128 0.391271 -21.6886 -0.161281 0.357679 -1.67593 -0.16128 0.357679 83.3113 -51.6945 -110.385 29.5746 -9.48938 7.63737 -8.8897 -12.6085 -43.1044 -3.99294 -0.384114 2.64268 -102.814 -43.4948 57.1482 -31.9124 5.79408 9.54462 4.02158 5.4259 -31.8378 10.5151 0.776546 3.2988 8.89946 -1.78092 3.32479 -2.90533 -2.46595 -1.57744 
43.0884 97.1579 20.2003 91.0099 -36.0004 88.9649 -172.874 5.08116 90.7363 -8.89536 8.7926 0.152649 59.3138 0.506518 5.37007 35.9555 7.72646 -11.3153 177.346 6.06608 87.8761 -14.6484 0.236851 -1.79536 66.4484 -1.99827 -1.07055 29.4493 -0.520423 9.81573 -0.107117 7.19139 -89.7822 12.4911 -0.109094 0.447636 0.820079 -0.0892689 0.451995 -21.7146 -0.238586 0.394154 -1.70196 -0.238575 0.394158 82.9854 -52.2038 -110.692 29.0835 -9.73074 7.10944 -10.22 -14.5303 -42.7338 -4.35032 -0.411598 2.20242 -102.752 -43.3943 57.1958 -30.7425 4.81245 9.26765 4.63003 4.9659 -33.2971 9.91685 0.695144 2.91818 8.46427 -1.46228 2.74755 -3.13145 -2.01769 -1.70263 
